<?xml version="1.0" standalone="no"?>
<!DOCTYPE svg PUBLIC "-//W3C//DTD SVG 20010904//EN"
 "http://www.w3.org/TR/2001/REC-SVG-20010904/DTD/svg10.dtd">
<svg version="1.0" xmlns="http://www.w3.org/2000/svg"
 width="415.000000pt" height="377.000000pt" viewBox="0 0 415.000000 377.000000"
 preserveAspectRatio="xMidYMid meet">
<g transform="translate(0.000000,377.000000) scale(0.100000,-0.100000)"
fill="#ffffff" stroke="none">
<path d="M815 3234 c-77 -40 -111 -101 -103 -186 14 -139 180 -203 289 -111
40 34 59 79 59 138 0 53 -16 88 -57 127 -52 49 -130 62 -188 32z"/>
<path d="M2183 3240 c-77 -18 -152 -81 -195 -164 -31 -58 -31 -182 -1 -247 86
-188 338 -232 481 -86 58 60 83 121 83 208 1 197 -176 335 -368 289z"/>
<path d="M3412 3230 c-32 -20 -62 -71 -62 -106 0 -31 33 -85 61 -99 100 -52
211 36 177 141 -25 74 -109 105 -176 64z"/>
<path d="M3350 2964 c-25 -9 -50 -20 -57 -26 -6 -5 -26 -51 -42 -101 -26 -77
-31 -108 -31 -187 0 -52 4 -100 8 -106 13 -20 40 -23 62 -7 21 15 22 21 16 86
-5 57 -3 82 15 134 11 35 23 63 25 63 2 0 4 -134 4 -297 l0 -298 -85 -17 c-55
-10 -97 -25 -118 -40 -22 -17 -71 -33 -160 -52 -71 -15 -130 -26 -132 -24 -2
2 -28 81 -59 177 -31 96 -63 185 -71 198 -20 30 -94 67 -202 100 -80 24 -103
27 -258 27 -135 1 -184 -3 -240 -18 -87 -23 -204 -76 -228 -104 -10 -11 -52
-125 -93 -254 -69 -219 -74 -238 -74 -325 l0 -92 -37 -10 c-284 -74 -309 -79
-375 -65 -35 7 -84 16 -111 19 l-47 6 0 434 c0 252 4 436 9 439 5 4 21 -30 36
-75 24 -71 27 -95 26 -199 -2 -108 0 -121 19 -140 26 -26 64 -26 90 0 18 18
20 33 20 156 0 134 -1 137 -46 275 -34 106 -51 143 -69 155 -119 78 -370 84
-500 11 -39 -21 -41 -26 -87 -162 -46 -139 -47 -141 -47 -277 -1 -125 1 -140
19 -158 11 -11 31 -20 45 -20 14 0 34 9 45 20 18 18 20 33 20 142 0 105 4 134
26 201 14 42 30 75 35 71 5 -3 9 -187 9 -438 l0 -433 -100 -16 c-210 -34 -286
-103 -177 -158 76 -39 207 -60 420 -66 l197 -6 325 -391 c179 -215 325 -394
325 -397 0 -4 -24 -13 -52 -19 -29 -7 -85 -27 -124 -45 -136 -62 -138 -128 -5
-195 213 -107 831 -142 1232 -69 255 46 387 125 336 202 -37 57 -232 123 -435
148 l-102 12 2 601 3 601 52 11 c49 11 53 10 59 -8 3 -11 4 -107 2 -213 -3
-181 -2 -194 17 -215 34 -38 78 -52 121 -37 69 22 74 42 77 304 l2 230 150 32
150 32 89 -15 c169 -30 432 -14 509 31 69 40 32 75 -108 103 l-80 16 -3 139
c-1 77 1 212 6 300 l7 160 20 -55 c13 -37 19 -82 20 -139 0 -73 3 -85 20 -97
18 -12 24 -12 43 2 20 14 22 24 22 109 0 78 -5 112 -30 190 -30 91 -33 96 -73
117 -56 29 -210 36 -277 12z m-1390 -919 l0 -164 -37 -10 c-75 -19 -78 -19
-81 16 -3 26 74 293 94 324 17 28 24 -19 24 -166z m1530 145 c0 -42 77 -53 95
-12 11 26 32 28 80 8 140 -59 -189 -114 -368 -62 -58 17 -58 45 1 66 43 15 44
15 64 -13 29 -40 98 -31 98 13 0 11 7 20 15 20 8 0 15 -9 15 -20z m-1530 -909
l0 -528 -51 -7 c-29 -4 -55 -3 -60 1 -31 33 -649 779 -649 784 0 4 17 10 38
14 91 16 157 62 148 101 -7 26 -4 27 139 59 39 9 77 18 86 21 14 4 17 -9 22
-83 7 -99 24 -131 78 -149 43 -14 87 -2 117 31 20 24 22 36 22 144 l0 118 43
10 c23 6 48 11 55 12 9 1 12 -111 12 -528z m-1052 415 c24 -67 112 -72 142 -8
14 30 18 32 50 27 54 -10 120 -42 120 -59 0 -46 -137 -77 -335 -77 -195 0
-335 31 -335 75 0 20 19 32 79 50 72 21 78 20 85 -9 8 -30 59 -59 92 -51 30 8
64 44 64 68 0 30 25 20 38 -16z m1372 -566 l0 -360 -25 0 -25 0 0 360 0 360
25 0 25 0 0 -360z m9 -454 c20 -82 100 -122 179 -91 42 17 82 65 82 100 0 15
6 17 43 12 23 -3 72 -15 109 -27 236 -73 93 -172 -289 -202 -253 -20 -533 10
-653 70 -68 33 -74 63 -22 99 40 26 130 54 185 56 36 2 41 -1 48 -27 11 -40
46 -74 91 -88 75 -22 168 41 168 116 0 21 5 26 24 26 20 0 25 -7 35 -44z"/>
</g>
</svg>
