<svg height='200' width='200'  fill="#000000" xmlns="http://www.w3.org/2000/svg" xmlns:xlink="http://www.w3.org/1999/xlink" version="1.1" x="0px" y="0px" viewBox="0 0 100 100" enable-background="new 0 0 100 100" xml:space="preserve"><path d="M42.514,31.574l15.521,3.293l21.845-13.428l1.721,2.8l4.556-8.419l-9.568,0.263l1.721,2.802L57.485,31.686l-15.521-3.293  L13.062,46.162l1.57,2.56L42.514,31.574z M37.534,59.783v4.164c0,2.16,5.33,4.58,12.465,4.58s12.467-2.42,12.467-4.58v-4.164  c-2.541,1.9-7.07,3.121-12.467,3.121S40.075,61.684,37.534,59.783z M37.534,75.434v4.162c0,2.166,5.33,4.584,12.465,4.584  s12.467-2.418,12.467-4.584v-4.162c-2.541,1.902-7.07,3.121-12.467,3.121S40.075,77.336,37.534,75.434z M65.056,40.469  c0,2.165,5.33,4.584,12.465,4.584s12.467-2.419,12.467-4.584c0-2.162-5.332-4.583-12.467-4.583S65.056,38.307,65.056,40.469z   M10.013,75.436V79.6c0,2.16,5.33,4.58,12.465,4.58s12.467-2.42,12.467-4.58v-4.164c-2.541,1.9-7.07,3.121-12.467,3.121  S12.554,77.336,10.013,75.436z M22.478,67.189c-7.135,0-12.465,2.42-12.465,4.582c0,2.166,5.33,4.584,12.465,4.584  s12.467-2.418,12.467-4.584C34.944,69.609,29.612,67.189,22.478,67.189z M37.534,67.607v4.164c0,2.164,5.33,4.584,12.465,4.584  s12.467-2.42,12.467-4.584v-4.164c-2.541,1.902-7.07,3.123-12.467,3.123S40.075,69.51,37.534,67.607z M65.056,51.957v4.164  c0,2.164,5.33,4.584,12.465,4.584s12.467-2.42,12.467-4.584v-4.164c-2.541,1.902-7.07,3.123-12.467,3.123  S67.597,53.859,65.056,51.957z M65.056,59.783v4.162c0,2.166,5.33,4.584,12.465,4.584s12.467-2.418,12.467-4.584v-4.162  c-2.541,1.902-7.07,3.121-12.467,3.121S67.597,61.686,65.056,59.783z M49.999,51.537c-7.135,0-12.465,2.42-12.465,4.582  c0,2.166,5.33,4.584,12.465,4.584s12.467-2.418,12.467-4.584C62.466,53.957,57.134,51.537,49.999,51.537z M65.056,44.132v4.164  c0,2.161,5.33,4.581,12.465,4.581s12.467-2.419,12.467-4.581v-4.164c-2.541,1.901-7.07,3.122-12.467,3.122  S67.597,46.034,65.056,44.132z M65.056,67.607v4.164c0,2.162,5.33,4.584,12.465,4.584s12.467-2.422,12.467-4.584v-4.164  c-2.541,1.9-7.07,3.121-12.467,3.121S67.597,69.508,65.056,67.607z M65.056,75.432v4.166c0,2.162,5.33,4.582,12.465,4.582  s12.467-2.42,12.467-4.582v-4.166c-2.541,1.904-7.07,3.123-12.467,3.123S67.597,77.336,65.056,75.432z"></path></svg>